<svg xmlns="http://www.w3.org/2000/svg" xmlns:xlink="http://www.w3.org/1999/xlink" version="1.1" width="885.1" height="593.1" viewBox="19.2 41.9 885.1 593.1"><g><g transform="translate(300,385.8)"><g><g>
<path d="M200,0c-43.3,0,-79.9,5.5,-93.1,13.2C46.9,14.6,0,24.7,0,37.2c0,13.3,53.8,24.2,119.8,24.2c3.3,0,7,0,10.3,-0.2c11.6,7.9,47.1,13.7,90.7,13.7c35.6,0,67,-4.1,82.5,-10c16.5,3.5,40,5.6,66,5.6c40.7,0,75.5,-5.3,87.9,-12.7c0.8,0,0.8,0,1.8,0c54.6,0,99,-9,99,-20s-44.3,-20.1,-99.2,-20.1c-10.6,0,-20.1,0.4,-28.6,0.9c-8.8,-7.6,-42.5,-13.2,-82.5,-13.2c-23.4,0,-44.3,1.9,-60.1,5.1C271.1,4.4,238.2,0,200,0L200,0z" stroke="#000000" stroke-dasharray="none" fill="#FFFFFF"/>
<rect x="50.7" y="23.3" width="447.7" height="28.4" fill="none"/>
<circle fill="none" cx="287.6" cy="10.7" r="0.1"/>
<circle fill="none" cx="366.5" cy="6" r="0.1"/>
<circle fill="none" cx="430.3" cy="18.8" r="0.1"/>
<circle fill="none" cx="558" cy="37.3" r="0.1"/>
<circle fill="none" cx="457.3" cy="58" r="0.1"/>
<circle fill="none" cx="376.3" cy="70.6" r="0.1"/>
<circle fill="none" cx="303.4" cy="65" r="0.1"/>
<circle fill="none" cx="218" cy="75" r="0.1"/>
<circle fill="none" cx="0" cy="37.2" r="0.1"/>
<circle fill="none" cx="130.2" cy="61.3" r="0.1"/>
<circle fill="none" cx="106.9" cy="13.2" r="0.1"/>
<circle fill="none" cx="199.7" cy="0" r="0.1"/>
</g></g><rect stroke="none" stroke-width="1" fill="#FFFFFF" x="0" y="0" width="40" height="20" transform="translate(58.1,81.2)"/><path stroke="#000000" fill="none" d="M130.2,61.3 C107,55 118.7,87.5 95.5 81.2"/><text font-family="OpenSansCondensedLight" font-size="14pt" fill="black" transform="translate(58.1,81.2)" text-anchor="middle"><tspan x="20" y="16.3">316</tspan></text><rect stroke-width="0" fill="none" width="447.7" height="28.4" transform="translate(50.7,23.3)"/><text font-family="OpenSansCondensedLight" font-size="14pt" fill="black" transform="translate(50.7,23.3)" text-anchor="middle"><tspan x="223.8" y="20.5"> </tspan></text><path stroke="#000000" fill="none" transform="translate(50.7,23.3)" d="M 0 0"/></g><g transform="translate(179,42)"><g><g>
<path d="M703,0H0v164h703V0L703,0z" stroke="#000000" stroke-dasharray="none" fill="#FFFFFF"/>
<rect x="30.8" y="7.5" width="641.6" height="149" fill="none"/>
<circle fill="none" cx="351.5" cy="0" r="0.1"/>
<circle fill="none" cx="525.7" cy="0" r="0.1"/>
<circle fill="none" cx="703" cy="41.4" r="0.1"/>
<circle fill="none" cx="703" cy="82" r="0.1"/>
<circle fill="none" cx="703" cy="122.6" r="0.1"/>
<circle fill="none" cx="525.7" cy="164" r="0.1"/>
<circle fill="none" cx="351.5" cy="164" r="0.1"/>
<circle fill="none" cx="177.3" cy="164" r="0.1"/>
<circle fill="none" cx="0" cy="122.6" r="0.1"/>
<circle fill="none" cx="0" cy="82" r="0.1"/>
<circle fill="none" cx="0" cy="41.4" r="0.1"/>
<circle fill="none" cx="177.3" cy="0" r="0.1"/>
</g></g><rect stroke="none" stroke-width="0" fill="#FFFFFF" x="0" y="0" width="0" height="0" transform="translate(702.9,81.9)"/><path stroke="#000000" fill="none" d=""/><text font-family="OpenSansCondensedLight" font-size="14pt" fill="black" transform="translate(702.9,81.9)"/><rect stroke-width="0" fill="none" width="641.6" height="149" transform="translate(30.8,7.5)"/><text font-family="OpenSansCondensedLight" font-size="14pt" fill="black" transform="translate(30.8,7.5)" text-anchor="middle"><tspan x="320.8" y="144.8">ENDPOINT 302</tspan></text><path stroke="#000000" fill="none" transform="translate(30.8,7.5)" d="M 355.8 147 383.7 147"/></g><g transform="translate(178,255)"><g><g>
<path d="M707,0H0v94h707V0L707,0z" stroke="#000000" stroke-dasharray="none" fill="#FFFFFF"/>
<rect x="30.9" y="4.3" width="645.2" height="85.4" fill="none"/>
<circle fill="none" cx="353.5" cy="0" r="0.1"/>
<circle fill="none" cx="528.7" cy="0" r="0.1"/>
<circle fill="none" cx="707" cy="23.7" r="0.1"/>
<circle fill="none" cx="707" cy="47" r="0.1"/>
<circle fill="none" cx="707" cy="70.3" r="0.1"/>
<circle fill="none" cx="528.7" cy="94" r="0.1"/>
<circle fill="none" cx="353.5" cy="94" r="0.1"/>
<circle fill="none" cx="178.4" cy="94" r="0.1"/>
<circle fill="none" cx="0" cy="70.3" r="0.1"/>
<circle fill="none" cx="0" cy="47" r="0.1"/>
<circle fill="none" cx="0" cy="23.7" r="0.1"/>
<circle fill="none" cx="178.4" cy="0" r="0.1"/>
</g></g><rect stroke="none" stroke-width="0" fill="#FFFFFF" x="0" y="0" width="0" height="0" transform="translate(706.9,46.9)"/><path stroke="#000000" fill="none" d=""/><text font-family="OpenSansCondensedLight" font-size="14pt" fill="black" transform="translate(706.9,46.9)"/><rect stroke-width="0" fill="none" width="645.2" height="85.4" transform="translate(30.9,4.3)"/><text font-family="OpenSansCondensedLight" font-size="14pt" fill="black" transform="translate(30.9,4.3)" text-anchor="middle"><tspan x="322.6" y="81.2">ACCESS POINT OR FIREWALL 304</tspan></text><path stroke="#000000" fill="none" transform="translate(30.9,4.3)" d="M 439.8 83 467.7 83"/></g><g transform="translate(185,499)"><g><g>
<path d="M698,0H0v94h698V0L698,0z" stroke="#000000" stroke-dasharray="none" fill="#FFFFFF"/>
<rect x="30.5" y="4.3" width="637" height="85.4" fill="none"/>
<circle fill="none" cx="349" cy="0" r="0.1"/>
<circle fill="none" cx="522" cy="0" r="0.1"/>
<circle fill="none" cx="698" cy="23.7" r="0.1"/>
<circle fill="none" cx="698" cy="47" r="0.1"/>
<circle fill="none" cx="698" cy="70.3" r="0.1"/>
<circle fill="none" cx="522" cy="94" r="0.1"/>
<circle fill="none" cx="349" cy="94" r="0.1"/>
<circle fill="none" cx="176.1" cy="94" r="0.1"/>
<circle fill="none" cx="0" cy="70.3" r="0.1"/>
<circle fill="none" cx="0" cy="47" r="0.1"/>
<circle fill="none" cx="0" cy="23.7" r="0.1"/>
<circle fill="none" cx="176.1" cy="0" r="0.1"/>
</g></g><rect stroke="none" stroke-width="0" fill="#FFFFFF" x="0" y="0" width="0" height="0" transform="translate(697.9,46.9)"/><path stroke="#000000" fill="none" d=""/><text font-family="OpenSansCondensedLight" font-size="14pt" fill="black" transform="translate(697.9,46.9)"/><rect stroke-width="0" fill="none" width="637" height="85.4" transform="translate(30.5,4.3)"/><text font-family="OpenSansCondensedLight" font-size="14pt" fill="black" transform="translate(30.5,4.3)" text-anchor="middle"><tspan x="318.5" y="81.2">SERVER 306</tspan></text><path stroke="#000000" fill="none" transform="translate(30.5,4.3)" d="M 341.9 83 369.9 83"/></g><g transform="translate(37,398)"><g><g>
<path d="M99.2,0H0v184.7h99.2V0L99.2,0z" stroke="#000000" stroke-dasharray="none" fill="#FFFFFF"/>
<rect x="4.3" y="8.4" width="90.5" height="167.9" fill="none"/>
<circle fill="none" cx="49.6" cy="0" r="0.1"/>
<circle fill="none" cx="74.2" cy="0" r="0.1"/>
<circle fill="none" cx="99.2" cy="46.6" r="0.1"/>
<circle fill="none" cx="99.2" cy="92.4" r="0.1"/>
<circle fill="none" cx="99.2" cy="138.1" r="0.1"/>
<circle fill="none" cx="74.2" cy="184.7" r="0.1"/>
<circle fill="none" cx="49.6" cy="184.7" r="0.1"/>
<circle fill="none" cx="25" cy="184.7" r="0.1"/>
<circle fill="none" cx="0" cy="138.1" r="0.1"/>
<circle fill="none" cx="0" cy="92.4" r="0.1"/>
<circle fill="none" cx="0" cy="46.6" r="0.1"/>
<circle fill="none" cx="25" cy="0" r="0.1"/>
</g></g><rect stroke="none" stroke-width="0" fill="#FFFFFF" x="0" y="0" width="0" height="0" transform="translate(99.1,92.3)"/><path stroke="#000000" fill="none" d=""/><text font-family="OpenSansCondensedLight" font-size="14pt" fill="black" transform="translate(99.1,92.3)"/><rect stroke-width="0" fill="none" width="90.5" height="167.9" transform="translate(4.3,8.4)"/><text font-family="OpenSansCondensedLight" font-size="14pt" fill="black" transform="translate(4.3,8.4)" text-anchor="middle"><tspan x="45.3" y="58.7">THREAT</tspan><tspan x="45.3" y="79.7">MANAGEMENT</tspan><tspan x="45.3" y="100.7">FACILITY</tspan><tspan x="45.3" y="121.7">308</tspan></text><path stroke="#000000" fill="none" transform="translate(4.3,8.4)" d="M 31.3 124 59.3 124"/></g><g transform="translate(617,128)"><g><g>
<g stroke="#000000" stroke-dasharray="none" fill="#FFFFFF">
    <path d="M72.4,53H96.5L48.3,0L0,53h24.1v318H0L48.3,424L96.5,371h-24.1V53z"/>
</g>
<rect x="10.2" y="15" fill="none" width="76" height="394"/>
<circle fill="none" cx="48.6" cy="0.4" r="0.1"/>
<circle fill="none" cx="96.3" cy="52.5" r="0.1"/>
<circle fill="none" cx="72.3" cy="100.3" r="0.1"/>
<circle fill="none" cx="72.3" cy="203.8" r="0.1"/>
<circle fill="none" cx="72.3" cy="303.7" r="0.1"/>
<circle fill="none" cx="97" cy="371.5" r="0.1"/>
<circle fill="none" cx="47.6" cy="422.9" r="0.1"/>
<circle fill="none" cx="0.2" cy="370.8" r="0.1"/>
<circle fill="none" cx="23.9" cy="305.2" r="0.1"/>
<circle fill="none" cx="23.9" cy="208.1" r="0.1"/>
<circle fill="none" cx="23.9" cy="106" r="0.1"/>
<circle fill="none" cx="0.2" cy="51.8" r="0.1"/>
</g></g><rect stroke="none" stroke-width="0" fill="#FFFFFF" x="0" y="0" width="0" height="0" transform="translate(72.2,203.7)"/><path stroke="#000000" fill="none" d=""/><text font-family="OpenSansCondensedLight" font-size="14pt" fill="black" transform="translate(72.2,203.7)"/><rect stroke-width="0" fill="none" width="76" height="394" transform="translate(10.2,15)"/><text font-family="OpenSansCondensedLight" font-size="14pt" fill="black" transform="translate(10.2,15)" text-anchor="middle"><tspan x="38" y="192.8">coloring </tspan><tspan x="38" y="213.8">310</tspan></text><path stroke="#000000" fill="none" transform="translate(10.2,15)" d="M 24 216 52 216"/></g><g transform="translate(699,125)"><g><g>
<g stroke="#000000" stroke-dasharray="none" fill="#FFFFFF">
    <path d="M75.6,55.3H100.8L50.4,0L0,55.3h25.2v332.2H0L50.4,443L100.8,387.6h-25.2V55.3z"/>
</g>
<rect x="10.7" y="15.7" fill="none" width="79.4" height="411.6"/>
<circle fill="none" cx="50.8" cy="0.4" r="0.1"/>
<circle fill="none" cx="100.7" cy="54.8" r="0.1"/>
<circle fill="none" cx="75.5" cy="104.8" r="0.1"/>
<circle fill="none" cx="75.5" cy="212.9" r="0.1"/>
<circle fill="none" cx="75.5" cy="317.3" r="0.1"/>
<circle fill="none" cx="101.3" cy="388.2" r="0.1"/>
<circle fill="none" cx="49.7" cy="441.8" r="0.1"/>
<circle fill="none" cx="0.2" cy="387.4" r="0.1"/>
<circle fill="none" cx="25" cy="318.8" r="0.1"/>
<circle fill="none" cx="25" cy="217.4" r="0.1"/>
<circle fill="none" cx="25" cy="110.7" r="0.1"/>
<circle fill="none" cx="0.2" cy="54.1" r="0.1"/>
</g></g><rect stroke="none" stroke-width="0" fill="#FFFFFF" x="0" y="0" width="0" height="0" transform="translate(75.4,212.8)"/><path stroke="#000000" fill="none" d=""/><text font-family="OpenSansCondensedLight" font-size="14pt" fill="black" transform="translate(75.4,212.8)"/><rect stroke-width="0" fill="none" width="79.4" height="411.6" transform="translate(10.7,15.7)"/><text font-family="OpenSansCondensedLight" font-size="14pt" fill="black" transform="translate(10.7,15.7)" text-anchor="middle"><tspan x="39.7" y="191.1">key</tspan><tspan x="39.7" y="212.1">management</tspan><tspan x="39.7" y="233.1">312</tspan></text><path stroke="#000000" fill="none" transform="translate(10.7,15.7)" d="M 25.7 235 53.7 235"/></g><g transform="translate(780,124)"><g><g>
<g stroke="#000000" stroke-dasharray="none" fill="#FFFFFF">
    <path d="M75.6,55.3H100.8L50.4,0L0,55.3h25.2v332.2H0L50.4,443L100.8,387.6h-25.2V55.3z"/>
</g>
<rect x="10.7" y="15.7" fill="none" width="79.4" height="411.6"/>
<circle fill="none" cx="50.8" cy="0.4" r="0.1"/>
<circle fill="none" cx="100.7" cy="54.8" r="0.1"/>
<circle fill="none" cx="75.5" cy="104.8" r="0.1"/>
<circle fill="none" cx="75.5" cy="212.9" r="0.1"/>
<circle fill="none" cx="75.5" cy="317.3" r="0.1"/>
<circle fill="none" cx="101.3" cy="388.2" r="0.1"/>
<circle fill="none" cx="49.7" cy="441.8" r="0.1"/>
<circle fill="none" cx="0.2" cy="387.4" r="0.1"/>
<circle fill="none" cx="25" cy="318.8" r="0.1"/>
<circle fill="none" cx="25" cy="217.4" r="0.1"/>
<circle fill="none" cx="25" cy="110.7" r="0.1"/>
<circle fill="none" cx="0.2" cy="54.1" r="0.1"/>
</g></g><rect stroke="none" stroke-width="0" fill="#FFFFFF" x="0" y="0" width="0" height="0" transform="translate(75.4,212.8)"/><path stroke="#000000" fill="none" d=""/><text font-family="OpenSansCondensedLight" font-size="14pt" fill="black" transform="translate(75.4,212.8)"/><rect stroke-width="0" fill="none" width="79.4" height="411.6" transform="translate(10.7,15.7)"/><text font-family="OpenSansCondensedLight" font-size="14pt" fill="black" transform="translate(10.7,15.7)" text-anchor="middle"><tspan x="39.7" y="201.6">heartbeat</tspan><tspan x="39.7" y="222.6">314</tspan></text><path stroke="#000000" fill="none" transform="translate(10.7,15.7)" d="M 25.7 225 53.7 225"/></g><g><path stroke="black" stroke-dasharray="none" d="M 179 121 82 121 82 398" fill="none"/><path fill="black" stroke="black" d="" transform="translate(179,121) scale(1,1) rotate(-180)"/><path fill="black" stroke="black" d="" transform="translate(82,398) scale(1,1) rotate(-90)"/><g><g label-idx="0" cursor="move" transform="translate(82, 211)"><rect fill="white" rx="3" ry="3" x="0" y="0" width="0" height="0"/><text text-anchor="middle" font-size="14pt" font-family="OpenSansCondensedLight" y="0.8em" display="none" xml:space="preserve" transform="translate(0,0)"/></g></g></g><g><path stroke="black" stroke-dasharray="none" d="M 178 300 82 300" fill="none"/><path fill="black" stroke="black" d="" transform="translate(178,300) scale(1,1) rotate(-180)"/><path fill="black" stroke="black" d="" transform="translate(82,300) scale(1,1) rotate(0)"/><g><g label-idx="0" cursor="move" transform="translate(130, 300)"><rect fill="white" rx="3" ry="3" x="0" y="0" width="0" height="0"/><text text-anchor="middle" font-size="14pt" font-family="OpenSansCondensedLight" y="0.8em" display="none" xml:space="preserve" transform="translate(0,0)"/></g></g></g><g><path stroke="black" stroke-dasharray="none" d="M 185 546 166 546 165 487 136 487" fill="none"/><path fill="black" stroke="black" d="" transform="translate(185,546) scale(1,1) rotate(-180)"/><path fill="black" stroke="black" d="" transform="translate(136,487) scale(1,1) rotate(0)"/><g><g label-idx="0" cursor="move" transform="translate(165.4, 511.5)"><rect fill="white" rx="3" ry="3" x="0" y="0" width="0" height="0"/><text text-anchor="middle" font-size="14pt" font-family="OpenSansCondensedLight" y="0.8em" display="none" xml:space="preserve" transform="translate(0,0)"/></g></g></g><g transform="translate(302,52)"><g><g>
<path d="M455,0H0v62h455V0L455,0z" stroke="#000000" stroke-dasharray="5,5" fill="#FFFFFF"/>
<rect x="19.9" y="2.8" width="415.2" height="56.3" fill="none"/>
<circle fill="none" cx="227.5" cy="0" r="0.1"/>
<circle fill="none" cx="340.3" cy="0" r="0.1"/>
<circle fill="none" cx="455" cy="15.6" r="0.1"/>
<circle fill="none" cx="455" cy="31" r="0.1"/>
<circle fill="none" cx="455" cy="46.4" r="0.1"/>
<circle fill="none" cx="340.3" cy="62" r="0.1"/>
<circle fill="none" cx="227.5" cy="62" r="0.1"/>
<circle fill="none" cx="114.8" cy="62" r="0.1"/>
<circle fill="none" cx="0" cy="46.4" r="0.1"/>
<circle fill="none" cx="0" cy="31" r="0.1"/>
<circle fill="none" cx="0" cy="15.6" r="0.1"/>
<circle fill="none" cx="114.8" cy="0" r="0.1"/>
</g></g><rect stroke="none" stroke-width="0" fill="#FFFFFF" x="0" y="0" width="0" height="0" transform="translate(454.9,30.9)"/><path stroke="#000000" fill="none" d=""/><text font-family="OpenSansCondensedLight" font-size="14pt" fill="black" transform="translate(454.9,30.9)"/><rect stroke-width="0" fill="none" width="415.2" height="56.3" transform="translate(19.9,2.8)"/><text font-family="OpenSansCondensedLight" font-size="14pt" fill="black" transform="translate(19.9,2.8)" text-anchor="middle"><tspan x="207.6" y="34.5">endpoint threat protection 318</tspan></text><path stroke="#000000" fill="none" transform="translate(19.9,2.8)" d="M 292.3 37 320.3 37"/></g></g><defs/></svg>